/* XPM */
static char *nave_drch[] = {
/* columns rows colors chars-per-pixel */
"32 30 200 2 ",
"   c #010001",
".  c #0B0202",
"X  c #060608",
"o  c #080709",
"O  c #0B0A0C",
"+  c #130203",
"@  c #1C0304",
"#  c #1D0608",
"$  c #0E0E10",
"%  c #110E10",
"&  c #0F131D",
"*  c #151416",
"=  c #1B1A1D",
"-  c #17171A",
";  c #230809",
":  c #280505",
">  c #300606",
",  c #360707",
"<  c #301D1A",
"1  c #2D291A",
"2  c #1E1C20",
"3  c #131721",
"4  c #061529",
"5  c #201E22",
"6  c #232226",
"7  c #252328",
"8  c #2C2B2E",
"9  c #27272C",
"0  c #2D2B30",
"q  c #312E34",
"w  c #353339",
"e  c #38363B",
"r  c #3C393A",
"t  c #363537",
"y  c #430505",
"u  c #460A08",
"i  c #5D0908",
"p  c #520808",
"a  c #4F1213",
"s  c #640B0A",
"d  c #680A0A",
"f  c #761A0B",
"g  c #78100F",
"h  c #5C2310",
"j  c #543010",
"k  c #49363B",
"l  c #56363B",
"z  c #46282F",
"x  c #6A3338",
"c  c #68272A",
"v  c #4E4727",
"b  c #123156",
"n  c #3E3B41",
"m  c #353742",
"M  c #0C3B67",
"N  c #413D43",
"B  c #483F4C",
"V  c #523B43",
"C  c #3A4855",
"Z  c #134F68",
"A  c #184171",
"S  c #394C69",
"D  c #366370",
"F  c #47464D",
"G  c #4B4A52",
"H  c #464D5A",
"J  c #404854",
"K  c #514F57",
"L  c #49515D",
"P  c #555259",
"I  c #5D595B",
"U  c #525053",
"Y  c #514A4D",
"T  c #664D54",
"R  c #75614A",
"E  c #414E62",
"W  c #445368",
"Q  c #525562",
"!  c #685C65",
"~  c #5D626D",
"^  c #516076",
"/  c #64616B",
"(  c #676468",
")  c #6A6771",
"_  c #68707F",
"`  c #79767B",
"'  c #7F676B",
"]  c #870C08",
"[  c #9B0E09",
"{  c #85110E",
"}  c #821010",
"|  c #B3140B",
" . c #B8190A",
".. c #89240B",
"X. c #B42D0F",
"o. c #A73F10",
"O. c #892C2E",
"+. c #853438",
"@. c #8F383C",
"#. c #98353A",
"$. c #9A2A2D",
"%. c #CF1C0A",
"&. c #CC2E0F",
"*. c #DA2E10",
"=. c #D62A10",
"-. c #AD5017",
";. c #916621",
":. c #916A33",
">. c #E34911",
",. c #EB4610",
"<. c #DF7917",
"1. c #ED6816",
"2. c #F27C1A",
"3. c #DB7821",
"4. c #803D40",
"5. c #8B535B",
"6. c #9B535A",
"7. c #914B4F",
"8. c #AC595F",
"9. c #A35B63",
"0. c #B15F67",
"q. c #9E747E",
"w. c #8C6972",
"e. c #F0941E",
"r. c #E98217",
"t. c #F39D20",
"y. c #DDA934",
"u. c #ECAF2E",
"i. c #EDB731",
"p. c #F4C034",
"a. c #AA9345",
"s. c #ABA06D",
"d. c #B9AF72",
"f. c #B2A46C",
"g. c #F8D04F",
"h. c #F9D658",
"j. c #F9E373",
"k. c #105697",
"l. c #3F7F9D",
"z. c #126DA7",
"x. c #50718E",
"c. c #7A7682",
"v. c #7A7784",
"b. c #827D8A",
"n. c #AF7F84",
"m. c #2887AB",
"M. c #2392BB",
"N. c #2A8DB2",
"B. c #7B839E",
"V. c #648699",
"C. c #4CA0B3",
"Z. c #4F90B0",
"A. c #289AC3",
"S. c #66AAC5",
"D. c #86838F",
"F. c #838084",
"G. c #8A8692",
"H. c #83939F",
"J. c #98959E",
"K. c #978E9B",
"L. c #BF9099",
"P. c #A89591",
"I. c #B1AC94",
"U. c #9C97A3",
"Y. c #9E99A9",
"T. c #A69CA9",
"R. c #A6A3AB",
"E. c #A5A3A7",
"W. c #ABA6B6",
"Q. c #ACA8B9",
"!. c #ACA6B8",
"~. c #B2ADBB",
"^. c #B4ADB3",
"/. c #B5B1BA",
"(. c #C99CAA",
"). c #CAA0B0",
"_. c #C0B2BB",
"`. c #DBCC8D",
"'. c #F9E98E",
"]. c #82ABC6",
"[. c #B4AEC0",
"{. c #BDB4C7",
"}. c #BDB5C8",
"|. c #C7B5C8",
" X c #CBBFD3",
".X c #D3BED2",
"XX c #D3B2C6",
"oX c #98CDDB",
"OX c #CCCCCE",
"+X c #CAC2D6",
"@X c #CDCCD0",
"#X c #D3C8D8",
"$X c #D5CBE3",
"%X c #DDD3EB",
"&X c #DED5E1",
"*X c #EDDEE8",
"=X c #E5DCF1",
"-X c #EBE5F4",
";X c #F0EAF9",
":X c #EEECF2",
/* pixels */
"                                                                ",
"                                                                ",
"                      X   X                                     ",
"                    X G v.J.F.%                                 ",
"      + > > +   o 5 N T n.L.n.a .                               ",
"    . y ] ..j 1 0 K v.B c +.#.#.k w w w w e *                   ",
"    , [ *.r.i.f.) N W l.S..X.X.X.X X+X+X+X&XP                   ",
"    d *.r.p.'.P.G m E M.l.b.T.T.T.Y.Y.Y.Y.R.C                   ",
"    > f o.-.R r 9 n G C z c +.4.k t e r e e -                   ",
"      + y y .   O 7 0 l 5.9.9.0.' 8                             ",
"            @ +     o P W.#X$X%X-XG.9                           ",
"          + i u .     - / !.#X%X%X:XJ.= - * - O                 ",
"        + s | [ u   O J.oXH.8.*X:X;X:XOX@X@X@Xc.X   X           ",
"      + i | >.<.:.r ~ S.V.w.(.&X` I I I ( $X-X@XE.E.E.t         ",
"    @ i | ,.e.g.d.Y _ A.E 6.#Xv.b b Z Z D v.{.=X;X;X-XK./ ) ( * ",
"    > g %.1.u.j.I.F G M.W 6.{.F M k.z.m.C.C Y.$X X+X+X[.!.~.E.5 ",
"      > ] %.1.i.a.N J N.W 7. X}.m & 3 & 9 Q.$X[.D.D.D.t O $ O   ",
"        : { &.X.h % 3 x.x.S T K.b.v.c.c.c.J.U./ = - = o         ",
"        . > } s ; X O 0 x.v.T.|. X#XU.w q q 0 =                 ",
"            > : X X O m b. X=X%X-X/.P                           ",
"      . : :   . o 5 0 ! L.).(.)./.Y                             ",
"    + y f f < * 5 P b.V c c O.$.z 2 = = = = O                   ",
"    s &.<.y.`.E.! N P l.].XXXXXX{.{.{.}.}.OXU                   ",
"    p  .,.e.h.s.Q m E M.Z.G.W.Q.!.W.W.W.W./.F                   ",
"    : s | -.;.v 0 n G S F x 5.7.T P G G G G 2                   ",
"      + p p +   $ 0 t l x 6.7.g # X o                           ",
"        . .         o ! W.#X^.< X o X X                         ",
"                      * 5 7 5 . X X o X o                       ",
"                                    o X   X                   X ",
"                                  X   X O X                 4 M "
};
