/* XPM */
static char *nave2[] = {
/* columns rows colors chars-per-pixel */
"30 32 201 2 ",
"   c #010001",
".  c #0B0202",
"X  c #060608",
"o  c #080709",
"O  c #0B0A0C",
"+  c #130203",
"@  c #1A0607",
"#  c #0F0E10",
"$  c #100F11",
"%  c #151416",
"&  c #171618",
"*  c #15181E",
"=  c #1C1A1E",
"-  c #18171A",
";  c #210304",
":  c #2D0505",
">  c #23080A",
",  c #300606",
"<  c #3A0707",
"1  c #3F1F18",
"2  c #251C1E",
"3  c #2D271B",
"4  c #111621",
"5  c #1E1D21",
"6  c #07162B",
"7  c #201F23",
"8  c #252429",
"9  c #2D2B2F",
"0  c #252327",
"q  c #2D2B31",
"w  c #252930",
"e  c #322D33",
"r  c #343236",
"t  c #35333A",
"y  c #38363C",
"u  c #3B393A",
"i  c #440506",
"p  c #460908",
"a  c #5E0908",
"s  c #560908",
"d  c #4F1213",
"f  c #670B0B",
"g  c #771A0B",
"h  c #79100F",
"j  c #5B2210",
"k  c #533111",
"l  c #47373A",
"z  c #56363B",
"x  c #45282F",
"c  c #693338",
"v  c #69272A",
"b  c #4D4727",
"n  c #123256",
"m  c #3E3B41",
"M  c #353743",
"N  c #0B3C68",
"B  c #413D43",
"V  c #483F4C",
"C  c #513B44",
"Z  c #394855",
"A  c #124F69",
"S  c #184171",
"D  c #394C69",
"F  c #366471",
"G  c #47464D",
"H  c #4B4A52",
"J  c #444C59",
"K  c #524F57",
"L  c #48515D",
"P  c #555259",
"I  c #5B5A5D",
"U  c #525053",
"Y  c #524B4C",
"T  c #624F57",
"R  c #684B53",
"E  c #766049",
"W  c #404D62",
"Q  c #425268",
"!  c #515562",
"~  c #665E67",
"^  c #5D626D",
"/  c #506076",
"(  c #65636A",
")  c #6A6771",
"_  c #66707F",
"`  c #79777C",
"'  c #860C08",
"]  c #86120F",
"[  c #9B100B",
"{  c #851010",
"}  c #9B0D08",
"|  c #B3140B",
" . c #B8190A",
".. c #89240B",
"X. c #B42D0F",
"o. c #A83F11",
"O. c #892C2E",
"+. c #8A3439",
"@. c #9F373B",
"#. c #9A2B2D",
"$. c #CF1C0A",
"%. c #CB2E0F",
"&. c #D62B12",
"*. c #DD2A0C",
"=. c #AE4F18",
"-. c #92692B",
";. c #E64811",
":. c #DF7917",
">. c #ED6816",
",. c #F37C19",
"<. c #DB7720",
"1. c #803D40",
"2. c #964D51",
"3. c #8A525A",
"4. c #9A535A",
"5. c #8F494D",
"6. c #A75B62",
"7. c #B25F67",
"8. c #9E747E",
"9. c #86686F",
"0. c #F0941E",
"q. c #E98117",
"w. c #F59C21",
"e. c #DCA833",
"r. c #ECB02E",
"t. c #EFB831",
"y. c #AA9246",
"u. c #A99E69",
"i. c #B6A96D",
"p. c #F7D14F",
"a. c #F9D659",
"s. c #F8E373",
"d. c #105697",
"f. c #136DA5",
"g. c #52718D",
"h. c #7B7682",
"j. c #787785",
"k. c #827D8A",
"l. c #B07E84",
"z. c #2887AB",
"x. c #2392BB",
"c. c #2B8EB3",
"v. c #40809D",
"b. c #7B839E",
"n. c #648699",
"m. c #4CA0B3",
"M. c #5090AF",
"N. c #289AC3",
"B. c #65AAC6",
"V. c #838085",
"C. c #868390",
"Z. c #8C8793",
"A. c #87929F",
"S. c #97939D",
"D. c #978D9B",
"F. c #AD8D9A",
"G. c #A49D88",
"H. c #B1AC92",
"J. c #9C97A3",
"K. c #9E99A9",
"L. c #9C99A4",
"P. c #A39CAB",
"I. c #A79CA8",
"U. c #A6A4A9",
"Y. c #A5A3A7",
"T. c #ABA5B6",
"R. c #ACA7B8",
"E. c #ACA8B9",
"W. c #B2ADBB",
"Q. c #B4ADB3",
"!. c #B6B1BA",
"~. c #C18F9A",
"^. c #CA9CAA",
"/. c #CBA0B0",
"(. c #C0B2BA",
"). c #DBCC8B",
"_. c #F9E88D",
"`. c #80B2CF",
"'. c #83A7C1",
"]. c #B4AEC0",
"[. c #BDB6C9",
"{. c #BDB5C7",
"}. c #C4B5C9",
"|. c #D2B2C6",
" X c #CBBFD3",
".X c #D2BDD2",
"XX c #9ACCDA",
"oX c #CCCCCE",
"OX c #CBC2D6",
"+X c #CDCCD0",
"@X c #CAC2D8",
"#X c #D3CBDB",
"$X c #D4C8D6",
"%X c #D5CBE2",
"&X c #DED3EB",
"*X c #DDD5E1",
"=X c #EDDFE8",
"-X c #E5DCF1",
";X c #EBE5F4",
":X c #F0EAF9",
">X c #EEECF2",
/* pixels */
"                            % 0                         X N ",
"                            ( U.O                         6 ",
"                            ) W.O                       X   ",
"                            ( T.O                           ",
"                          y D.].y O                         ",
"                        X L.;X@XC.=                         ",
"                        X Y.:X XC.=                         ",
"                        X Y.:XOXC.=                         ",
"                      # ` +X-X%XW.~ =                       ",
"          & P Z %     % oX;X{.P.%XJ.r     O U G 5           ",
"          u *XP.y     % oX#X_ Z T.J.r     = oXW.H       X o ",
"          t OXK.y     % oX) F m.8 j.r     = [.T.H     X X o ",
"          r @XK.y     = oXI A z.4 ` t     = {.T.H   X X X   ",
"          r @XK.y   0 S.>XI A f.4 j.J.P   = {.E.H X X X X X ",
"          r  XK.t 9 Z.;X>XI n d.* ` #X!.Y 7 [.E.P   o X   X ",
"        . z @XK.l 9.>X&X:X` n S M b.}.;X!.x }.E.T > . o     ",
"      # d @..XK.@.7.&X&X=X*Xh.Z [.D.{.&X/.#.|.R.4.h 7 o     ",
"    X j.l.+..XP.+.6.&X#X6.^.$X}..XR I.&X^.O.|.E.5.5.Q.7     ",
"    X D.~.+.#Xk.v 4.#XR.A.9.4.4.3.D j.@X/.O.|.D.c 2.$X0     ",
"      j.l.v B.g.x 3.U.( XXn.L D D g.g.Z.F.v '.M.G 1.I.7     ",
"      G T G z.x.Z C P - L.B.N.x.c.g.q M ~ C f.N.D z ~ %     ",
"      X B j.! J J e o . # ^ _ Z V & O O 9 k.! L H y o       ",
"        8 K m m m 8     . l Y l B @ X X = K B m m q         ",
"        O q ) H 8 O   . d -.i.H.y.j @ X . 0 ~ P q #         ",
"          3 i.G.y   . i [ <.p.s.r.X.f >   & H.u.b           ",
"        . k t._.E + @ a | ;.0.r.>.&.{ , . 1 ).a.-.@         ",
"        : ..q.t.=.<   + a | ;.>.$.{ , . ; g e.0.=.s         ",
"        , ] *.,.=.i     + a | $.' >     ; g :.;.| s         ",
"        + < } *.g +       + f h :       . < %. .f @         ",
"          . i f ,           @ :           + f s ;           ",
"                                                            ",
"                                                            "
};
