/* XPM */
static char *asteroide2[] = {
/* columns rows colors chars-per-pixel */
"30 32 170 2 ",
"   c #000000",
".  c #000001",
"X  c #010101",
"o  c #010102",
"O  c #020203",
"+  c #030203",
"@  c #030303",
"#  c #030304",
"$  c #040404",
"%  c #040405",
"&  c #050505",
"*  c #050506",
"=  c #060607",
"-  c #070708",
";  c #080709",
":  c #09080A",
">  c #09090A",
",  c #0A090B",
"<  c #0A0A0B",
"1  c #0B0B0D",
"2  c #0C0B0D",
"3  c #0C0C0E",
"4  c #0D0C0E",
"5  c #0D0D0F",
"6  c #0E0D0F",
"7  c #0E0D10",
"8  c #101012",
"9  c #121114",
"0  c #121215",
"q  c #131215",
"w  c #141315",
"e  c #141316",
"r  c #161517",
"t  c #161518",
"y  c #18171A",
"u  c #19181C",
"i  c #1A181C",
"p  c #1A191D",
"a  c #1C1B1E",
"s  c #1C1C1F",
"d  c #1C1B20",
"f  c #1E1D21",
"g  c #1E1D22",
"h  c #1F1E23",
"j  c #201E23",
"k  c #201F24",
"l  c #211F25",
"z  c #212024",
"x  c #212124",
"c  c #222125",
"v  c #212026",
"b  c #222026",
"n  c #222126",
"m  c #232127",
"M  c #232227",
"N  c #242226",
"B  c #252427",
"V  c #242228",
"C  c #242328",
"Z  c #252328",
"A  c #252329",
"S  c #252429",
"D  c #26242A",
"F  c #27252B",
"G  c #27262B",
"H  c #27262C",
"J  c #28262C",
"K  c #29272D",
"L  c #29282D",
"P  c #2A282D",
"I  c #2A282E",
"U  c #2B292F",
"Y  c #2C2A2F",
"T  c #2B2930",
"R  c #2C2A30",
"E  c #2C2B30",
"W  c #2D2B31",
"Q  c #2E2B32",
"!  c #2E2C32",
"~  c #2F2D33",
"^  c #2F2E32",
"/  c #302E34",
"(  c #312F35",
")  c #313035",
"_  c #323036",
"`  c #323136",
"'  c #333137",
"]  c #333237",
"[  c #333138",
"{  c #343138",
"}  c #343238",
"|  c #343239",
" . c #363339",
".. c #35333A",
"X. c #36343A",
"o. c #36343B",
"O. c #37343B",
"+. c #36353B",
"@. c #37353B",
"#. c #37353C",
"$. c #38353C",
"%. c #38363C",
"&. c #38363D",
"*. c #39373E",
"=. c #3A373E",
"-. c #3A373F",
";. c #3A393E",
":. c #3A383F",
">. c #3B393F",
",. c #3B3840",
"<. c #3B3940",
"1. c #3C3940",
"2. c #3C3941",
"3. c #3C3A41",
"4. c #3D3A41",
"5. c #3D3B42",
"6. c #3E3B42",
"7. c #3E3C43",
"8. c #3F3C43",
"9. c #3F3D43",
"0. c #3F3D44",
"q. c #3F3D45",
"w. c #403D45",
"e. c #403E44",
"r. c #413F46",
"t. c #423F47",
"y. c #424047",
"u. c #434047",
"i. c #434048",
"p. c #454249",
"a. c #45424A",
"s. c #45434A",
"d. c #45434B",
"f. c #46444B",
"g. c #47444C",
"h. c #48454D",
"j. c #49464D",
"k. c #48464E",
"l. c #49464E",
"z. c #4A474F",
"x. c #4B4850",
"c. c #4B4851",
"v. c #4C4952",
"b. c #4D4B53",
"n. c #4D4B54",
"m. c #4E4C54",
"M. c #4F4E55",
"N. c #524F58",
"B. c #525059",
"V. c #53515A",
"C. c #54515B",
"Z. c #55525B",
"A. c #57545D",
"S. c #57545E",
"D. c #57555E",
"F. c #5A5762",
"G. c #5B5862",
"H. c #5C5963",
"J. c #5D5A64",
"K. c #5D5B64",
"L. c #5E5B66",
"P. c #5E5C66",
"I. c #5F5C66",
"U. c #605D66",
"Y. c #615E68",
"T. c #625F69",
"R. c #64626C",
"E. c #65626D",
"W. c #66646D",
"Q. c #6A6872",
/* pixels */
"                                                            ",
"                                                            ",
"                                                            ",
"                                                            ",
"                                                            ",
"                                                            ",
"                                                            ",
"                                                            ",
"                                                            ",
"        # =       - =           = =         # = = #         ",
"      t 8.m.9   B M.X.1       = ^ v.`       ;.S.v.{ >       ",
"    > ( U.C.` z ;.Y.L.d.z ; 6 w.G.V.2.g 1 X.S.Y.S.{ >       ",
"    N c.G.e.e.=.2.N.E.L.{ z X.E.L.2.2.2.p W.F.z.<.g 6 #     ",
"    0.Z.<.d.E N [ c.z.E D d.R.z.L ;.z.e.[ I.N.8.( S k 1     ",
"    p H K =.=.{ X.2.z.=.e.v.x.=.S ` ( X.I.[ H D L ` z 1     ",
"    = p { =.d.` S E >.Y C.S.2.O.S S N { Q.z.#.[ ~ K ( 8     ",
"      d d.i.=.X.[ ^ T E 2.e.<.i.( E ( 2.u.X.( E E ^ T 6     ",
"      t O.i.D <.t.~ L ~ =.#.` 2.,.[ 2.f./ K z k S ^ p -     ",
"        6 E K =.=.K [ S M.z.z T ` K { v.f.;.K g d u #       ",
"          > E L K ( S m D z D 0.K k { z.=.=.F 9 # #         ",
"            6 > 1 9 z ( y - > r j E =.X.D D 9 =             ",
"                  # 7 t >       7 z ` { k 8 =               ",
"                                  7 g z e #                 ",
"                                                            ",
"                                                            ",
"                                                            ",
"                                                            ",
"                                                            ",
"                                                            ",
"                                                            ",
"                                                            ",
"                                                            "
};
