/* XPM */
static char *estrella2[] = {
/* columns rows colors chars-per-pixel */
"30 32 106 2 ",
"   c black",
".  c #000001",
"X  c #000002",
"o  c #020103",
"O  c #020104",
"+  c #030207",
"@  c #040208",
"#  c #040209",
"$  c #04030A",
"%  c #05020B",
"&  c #070408",
"*  c #05030C",
"=  c #06030D",
"-  c #05030E",
";  c #06040D",
":  c #06040E",
">  c #06040F",
",  c #080509",
"<  c #09050C",
"1  c #060311",
"2  c #080411",
"3  c #080412",
"4  c #0A0615",
"5  c #0A0616",
"6  c #0A0617",
"7  c #0C0717",
"8  c #0D0717",
"9  c #0A0618",
"0  c #0C071A",
"q  c #0C071D",
"w  c #0D071D",
"e  c #0C0819",
"r  c #0D081B",
"t  c #0C081C",
"y  c #0D081D",
"u  c #0D081E",
"i  c #120B16",
"p  c #120B17",
"a  c #10091E",
"s  c #180E1C",
"d  c #180F1C",
"f  c #0D0820",
"g  c #0F0925",
"h  c #100926",
"j  c #100927",
"k  c #160D24",
"l  c #100929",
"z  c #110A29",
"x  c #120B29",
"c  c #130C2A",
"v  c #160E28",
"b  c #120A2E",
"n  c #150C2D",
"m  c #1F1523",
"M  c #1E132A",
"N  c #1F132E",
"B  c #160D30",
"V  c #191036",
"C  c #1E1235",
"Z  c #1F1335",
"A  c #211527",
"S  c #221629",
"D  c #25192B",
"F  c #281A31",
"G  c #2E1C36",
"H  c #2E1D39",
"J  c #25154B",
"K  c #25144C",
"L  c #27164D",
"P  c #271652",
"I  c #281551",
"U  c #291855",
"Y  c #28165F",
"T  c #29165F",
"R  c #3E2949",
"E  c #3E284A",
"W  c #301E64",
"Q  c #321F67",
"!  c #351F70",
"~  c #3B206E",
"^  c #3C226F",
"/  c #3D2170",
"(  c #3D2370",
")  c #4E2D83",
"_  c #4E2E82",
"`  c #412491",
"'  c #47269B",
"]  c #5A3692",
"[  c #693BA5",
"{  c #6A3BA6",
"}  c #683AB7",
"|  c #7D4DAA",
" . c #7340BC",
".. c #7441BC",
"X. c #845694",
"o. c #8751BD",
"O. c #8752BE",
"+. c #9D64B7",
"@. c #9D65B8",
"#. c #A069B9",
"$. c #884DCA",
"%. c #BC78E4",
"&. c #C27FE4",
"*. c #C381E5",
"=. c #CF90EA",
"-. c #EDBCF6",
/* pixels */
"                                                            ",
"                                                            ",
"                                                            ",
"                                                            ",
"                                                            ",
"                                                            ",
"                                                            ",
"                                                            ",
"                                                            ",
"                          # n 3                             ",
"                          8 ) C                             ",
"                          d @.E                             ",
"                          & H p                             ",
"                          = T j                             ",
"                        > J  .( y                           ",
"      O r = > v F < 9 l P { *.O.( b f # A N 9 # y #         ",
"      2 Q B V ] #.S I ` } %.-.=.$.' ! a X.| U y Q l         ",
"        e & > k D , 4 j J { &.O.~ l y # A M 4 O r #         ",
"                        = K ..^ w                           ",
"                          1 T j                             ",
"                          & G i                             ",
"                          d +.E                             ",
"                          9 _ F                             ",
"                          # l 3                             ",
"                                                            ",
"                                                            ",
"                                                            ",
"                                                            ",
"                                                            ",
"                                                            ",
"                                                            ",
"                                                            "
};
