/* XPM */
static char *nave_abajo[] = {
/* columns rows colors chars-per-pixel */
"30 32 202 2 ",
"   c #010001",
".  c #0C0202",
"X  c #060608",
"o  c #080709",
"O  c #0B0A0C",
"+  c #140203",
"@  c #1C0304",
"#  c #1E0508",
"$  c #0E0D10",
"%  c #120E10",
"&  c #151416",
"*  c #14151B",
"=  c #1B1A1D",
"-  c #16171C",
";  c #2D0505",
":  c #23080A",
">  c #250506",
",  c #300606",
"<  c #360808",
"1  c #301D1A",
"2  c #2D281A",
"3  c #1E1D21",
"4  c #121620",
"5  c #061529",
"6  c #211F22",
"7  c #242226",
"8  c #252428",
"9  c #2C2B2E",
"0  c #26272C",
"q  c #2D2B30",
"w  c #322E34",
"e  c #343337",
"r  c #353339",
"t  c #38363C",
"y  c #3B393A",
"u  c #430506",
"i  c #450908",
"p  c #5E0807",
"a  c #560908",
"s  c #4E1112",
"d  c #630909",
"f  c #690D0D",
"g  c #771A0B",
"h  c #79100F",
"j  c #5C2411",
"k  c #533010",
"l  c #46383C",
"z  c #533238",
"x  c #46292F",
"c  c #6A3438",
"v  c #69272A",
"b  c #4D4727",
"n  c #123156",
"m  c #3E3B41",
"M  c #353743",
"N  c #0B3B68",
"B  c #453E48",
"V  c #553B42",
"C  c #7F3E41",
"Z  c #3A4856",
"A  c #124F68",
"S  c #184171",
"D  c #394D6A",
"F  c #366370",
"G  c #47464D",
"H  c #514A4D",
"J  c #4C4A52",
"K  c #434B58",
"L  c #524F58",
"P  c #49515D",
"I  c #555259",
"U  c #5B595C",
"Y  c #515053",
"T  c #664D54",
"R  c #766049",
"E  c #404E62",
"W  c #435268",
"Q  c #515562",
"!  c #675D66",
"~  c #5C646E",
"^  c #506077",
"/  c #64616B",
"(  c #666467",
")  c #6A6771",
"_  c #66707F",
"`  c #79767C",
"'  c #7F676B",
"]  c #860D08",
"[  c #85110E",
"{  c #9B100B",
"}  c #841110",
"|  c #9B0D08",
" . c #B3140B",
".. c #B8190B",
"X. c #8A230B",
"o. c #B52D0F",
"O. c #A73F11",
"+. c #892C2E",
"@. c #89363A",
"#. c #983539",
"$. c #9A2B2D",
"%. c #CF1C0A",
"&. c #CC2F10",
"*. c #D52C12",
"=. c #DE2B0C",
"-. c #AD4F18",
";. c #92682B",
":. c #E64911",
">. c #DF7B17",
",. c #EC6916",
"<. c #F17C18",
"1. c #DB7921",
"2. c #8D4E54",
"3. c #8A535B",
"4. c #9A535A",
"5. c #94484C",
"6. c #AC585E",
"7. c #A35B63",
"8. c #B15F67",
"9. c #9E747E",
"0. c #8C6971",
"q. c #F0941E",
"w. c #E98218",
"e. c #F59D21",
"r. c #DDA933",
"t. c #ECAE2D",
"y. c #F4BE32",
"u. c #EDB731",
"i. c #AA9345",
"p. c #AB9E6D",
"a. c #B9AE71",
"s. c #B2A46C",
"d. c #F7D24F",
"f. c #FAD858",
"g. c #F9E371",
"h. c #105697",
"j. c #3F7F9D",
"k. c #136DA5",
"l. c #52718D",
"z. c #7A7682",
"x. c #7A7785",
"c. c #827D89",
"v. c #AF7D83",
"b. c #2887AB",
"n. c #2392BB",
"m. c #2B8DB3",
"M. c #7B839F",
"N. c #658699",
"B. c #4CA0B3",
"V. c #4F90B0",
"C. c #289AC3",
"Z. c #66AAC5",
"A. c #86828F",
"S. c #838085",
"D. c #8A8792",
"F. c #80929E",
"G. c #98949D",
"H. c #978D9B",
"J. c #AD8E9B",
"K. c #A39D87",
"L. c #B1AB93",
"P. c #9B97A2",
"I. c #9F97A8",
"U. c #9E99A9",
"Y. c #9B9BA0",
"T. c #A79BAB",
"R. c #A4A3A6",
"E. c #A7A5A9",
"W. c #ABA5B6",
"Q. c #ADA7B9",
"!. c #A8A5B5",
"~. c #B3ADBC",
"^. c #B3ADB3",
"/. c #B6B2BB",
"(. c #C0909A",
"). c #CB9EAE",
"_. c #C999A7",
"`. c #C8A0B0",
"'. c #C1B3BB",
"]. c #DBCC8D",
"[. c #F9E88C",
"{. c #82ABC6",
"}. c #BDB5C8",
"|. c #BDB5C7",
" X c #C5B4C8",
".X c #CBBFD3",
"XX c #D3BED3",
"oX c #D3B2C6",
"OX c #99CEDC",
"+X c #CCCCCE",
"@X c #CAC2D5",
"#X c #CDCCD0",
"$X c #D4CBDB",
"%X c #D3C8D5",
"&X c #D4CBE3",
"*X c #DDD3EB",
"=X c #DDD4E2",
"-X c #ECDEE8",
";X c #E5DCF1",
":X c #EBE5F4",
">X c #F1EBF9",
",X c #EFECF2",
/* pixels */
"                                                            ",
"                                                            ",
"          > a d +           , @           , f < .           ",
"        @ d ..&.< .       ; ] p +       + g =.{ u .         ",
"        a  .:.>.g @   . ; ] %...p +     i O.w.=.] ,         ",
"      . i -.q.t.g >   , ] %.,.:. .d +   < -.y.w.X.;         ",
"        @ ;.f.].1 + , } &.,.t.q.:. .a + @ R [.u.k +         ",
"          b p.R.&   : f o.t.g.d.1.{ i +   y K.s.2           ",
"        $ q L ! 6 X X # j i.L.a.;.i .   O 8 J / q O         ",
"        0 B B B L 3 X X % m l H m       8 t B B L 8         ",
"      O t J K I c.q O O * G Z z.~ %   O w J K P z.B X       ",
"    & ! z F n.b.V ! t q l.m.n.C.Z.P.4 U V M n.m.G T G       ",
"    = T.C G V.{.v J.D.^ l.D W D N.OX~ W.3.x b.{.c 9.z.X     ",
"    7 %X5.c D.oXv )..XM.D 3.4.4.0.M.~.$X7.v 0.%X@.(.G.      ",
"    6 ^.5.2.Q.oX$.).*XT.V XX X&X_.6.$X*X7.@.T.XX@.9.S.X     ",
"    o 3 h 4.Q.oX$.).*X XI. Xm x.$X-X=X*X8.#.T.XX#.s O       ",
"    X X # T Q. Xx /.:X.Xx.M S n ` >X;X,X' l U.@Xz .         ",
"X X   o X L Q.}.3 J ~.$Xz.5 h.n U >X,XD.9 y U.@Xr           ",
"X X o X o J Q.|.=   I Y.` 4 k.N U -XG.8   t U.@Xr           ",
"  X X X   J W.|.=     r z.- b.A U +X=     t U.@Xr           ",
"o X X     J W.|.=     e x.0 B.F ( +X&     y U.@Xe           ",
"o X X     J ~.+X=     e H.W.Z x.$X+X&     y R.=Xt           ",
"          = G Y O     w G.&XU.|.,X$X&     & m I &           ",
"                      = ~ |.&X;X#X` O                       ",
"                        = A..X>XE.                          ",
"                        = A.@X>XR.X                         ",
"                        = A.@X:XR.X                         ",
"                        o r ~.G.e                           ",
"                          O W./                             ",
"                          O ~./                             ",
"5                         O E.(                             ",
"N X                       X 7 &                             "
};
