/* XPM */
static char *nave_izq[] = {
/* columns rows colors chars-per-pixel */
"32 30 201 2 ",
"   c #010001",
".  c #0B0202",
"X  c #060608",
"o  c #080709",
"O  c #0B0A0C",
"+  c #130203",
"@  c #1C0304",
"#  c #1C0508",
"$  c #0F0E10",
"%  c #120E10",
"&  c #0F131D",
"*  c #151416",
"=  c #1C1A1D",
"-  c #16171A",
";  c #2C0405",
":  c #230809",
">  c #240506",
",  c #300606",
"<  c #360707",
"1  c #311D1A",
"2  c #2C291A",
"3  c #1A1B21",
"4  c #06152A",
"5  c #211F23",
"6  c #252428",
"7  c #27272B",
"8  c #2D2B30",
"9  c #312E33",
"0  c #343236",
"q  c #353339",
"w  c #38363C",
"e  c #3D393B",
"r  c #430505",
"t  c #460A08",
"y  c #5E0908",
"u  c #560908",
"i  c #4F1112",
"p  c #650B0A",
"a  c #6B0C0C",
"s  c #771A0B",
"d  c #78100F",
"f  c #5B2310",
"g  c #533010",
"h  c #4D333A",
"j  c #57373B",
"k  c #45282F",
"l  c #6A3338",
"z  c #68272A",
"x  c #4D4727",
"c  c #123156",
"v  c #3E3A41",
"b  c #353742",
"n  c #0B3B67",
"m  c #413D43",
"M  c #483F4D",
"N  c #533B44",
"B  c #7F3E41",
"V  c #3A4856",
"C  c #124F68",
"Z  c #184171",
"A  c #394D6A",
"S  c #356370",
"D  c #47464D",
"F  c #514A4D",
"G  c #4C4A52",
"H  c #434C58",
"J  c #524F57",
"K  c #48505D",
"L  c #55535A",
"P  c #5B595C",
"I  c #525054",
"U  c #624F57",
"Y  c #684C53",
"T  c #756049",
"R  c #414E63",
"E  c #435268",
"W  c #505562",
"Q  c #665E66",
"!  c #5D626E",
"~  c #506077",
"^  c #65636A",
"/  c #6A6770",
"(  c #67707E",
")  c #79767B",
"_  c #7F676B",
"`  c #860C07",
"'  c #85110E",
"]  c #9A100C",
"[  c #821110",
"{  c #9B0D08",
"}  c #B2140A",
"|  c #B8190B",
" . c #89230B",
".. c #B42D0F",
"X. c #A73F10",
"o. c #882C2E",
"O. c #863539",
"+. c #95363A",
"@. c #9B2A2C",
"#. c #CF1C0A",
"$. c #CC2E0F",
"%. c #DA2F10",
"&. c #D62A10",
"*. c #AD4F17",
"=. c #926621",
"-. c #916B34",
";. c #E64911",
":. c #E5490F",
">. c #DF7B17",
",. c #ED6816",
"<. c #F27C19",
"1. c #DB7921",
"2. c #8D4E53",
"3. c #8A525A",
"4. c #9A535A",
"5. c #94494C",
"6. c #A65A62",
"7. c #B25E66",
"8. c #9E757E",
"9. c #8A6971",
"0. c #F0941E",
"q. c #E98116",
"w. c #F39D20",
"e. c #DCA933",
"r. c #ECAD2D",
"t. c #F0B931",
"y. c #AA9345",
"u. c #AA9F6C",
"i. c #B9AF72",
"p. c #B2A46B",
"a. c #F7D24F",
"s. c #F9D658",
"d. c #F8E270",
"f. c #105697",
"g. c #3F7F9D",
"h. c #136DA5",
"j. c #52718E",
"k. c #7A7682",
"l. c #797785",
"z. c #827D8A",
"x. c #AF7E83",
"c. c #2887AB",
"v. c #2393BB",
"b. c #2B8DB3",
"n. c #7C839E",
"m. c #64869A",
"M. c #4CA0B3",
"N. c #4F90B0",
"B. c #289AC3",
"V. c #66AAC6",
"C. c #86838F",
"Z. c #838084",
"A. c #8A8593",
"S. c #8C8990",
"D. c #83939F",
"F. c #99959E",
"G. c #988D9C",
"H. c #AD8E9B",
"J. c #A49D87",
"K. c #B1AC93",
"L. c #9E99A9",
"P. c #9B97A3",
"I. c #A39CAC",
"U. c #A79CA8",
"Y. c #A6A5A9",
"T. c #A5A3A7",
"R. c #ABA5B6",
"E. c #ADA6B9",
"W. c #ACA8B9",
"Q. c #B2ADBB",
"!. c #B3ACB2",
"~. c #B5B2BB",
"^. c #C0909A",
"/. c #C99BA9",
"(. c #CBA0B0",
"). c #C1B3BB",
"_. c #DBCC8D",
"`. c #F9E88C",
"'. c #82ABC6",
"]. c #B4AEC0",
"[. c #BDB5C9",
"{. c #BDB4C7",
"}. c #CFB3C6",
"|. c #C0B4C8",
" X c #C4BCD2",
".X c #D2BED3",
"XX c #D3B2C6",
"oX c #98CDDB",
"OX c #CCCCCE",
"+X c #CAC1D6",
"@X c #CDCCD0",
"#X c #D4CCDC",
"$X c #D3C8D5",
"%X c #D5CBE3",
"&X c #DDD3EB",
"*X c #DDD5E1",
"=X c #EDDFE9",
"-X c #E5DCF2",
";X c #EBE5F4",
":X c #F1EAF9",
">X c #EEECF2",
/* pixels */
"n 4                 o o   X X                                   ",
"X                   X X X o X                                   ",
"                      X X X   o O 5 6 = *                       ",
"                        X X o . 5 !.$XU.Q O           .         ",
"                          o X : d 5.5.B j e 8 O   @ t u @       ",
"                  = G G G G L U 2.2.l M A G e 8 x =.*.} p >     ",
"                  D ~.E.E.E.W.W.W.R.A.N.B.H h J u.s.w.:.| u     ",
"                  I OX|.[.[.[.).XXXX}.'.c.W V ^ K._.e.>.$.p     ",
"                  O = = = = 5 k @.o.o.z j z.I 6 * 1 s s r +     ",
"                            G ~.(./.(.H.Q 8 = o   + @ > .       ",
"                          L ~.;X&X-X XA.e O o o > ,             ",
"                = 8 0 0 q P.#X X[.U.n.~ 8 o o @ a [ , X         ",
"        O - 3 - ^ P.P.l.k.( l.l.G.Y A j.j.- % g ..$.' >         ",
"  O O O q C.A.C.Q.%XE.7 & 3 & b [..X3.A b.V h y.r.,.#.` ;       ",
"6 Y.Q.R.~.+X+X+X%XI.V M.c.h.f.Z M [.4.E v.K h K.d.r.,.#.` ;     ",
"* ^ / ^ G.;X:X:X-X{.l.S C n c c l..X4.R B.( F i.a.0.:.} y @     ",
"        0 T.T.Y.@X>X#X^ P P P ) %X/.9.j.V.! e -.1.;.} y @       ",
"          X   X ) OXOXOXOX>X:X:X=X7.D.oXP.$   t ] } p +         ",
"                $ - - - - F.;X&X&X.X].^ - X   . r y +           ",
"                          7 S.;X&X&X%XR.L O     + +             ",
"                            8 _ 7.6.6.3.N 8 5 %   . r r @       ",
"                  - q w w w q h +.O.z h b D m 5 e T *.*.s ;     ",
"                  v T.L.L.L.L.L.L.L.l.g.B.H b G J.`.t.<.%.a     ",
"                  P *X+X+X+X+X.X.X.X.X'.b.K m / p.t.<.%.{ <     ",
"                  * w q 0 q 0 h +.+.O.l D l.J 8 2 g  .` r .     ",
"                              . i x.^.8.Y e 6 O   X ; ; +       ",
"                                % z.F.k.G X                     ",
"                                    X                           ",
"                                                                ",
"                                                                "
};
