/* XPM */
static char *planeta2[] = {
/* columns rows colors chars-per-pixel */
"32 30 189 2 ",
"   c #000001",
".  c #04020B",
"X  c #060312",
"o  c #090516",
"O  c #0C0812",
"+  c #0A0519",
"@  c #110C17",
"#  c #100B18",
"$  c #12092C",
"%  c #160C35",
"&  c #180D38",
"*  c #1E1137",
"=  c #221527",
"-  c #27183C",
";  c #21143B",
":  c #1E1043",
">  c #211246",
",  c #22134B",
"<  c #2D1C4B",
"1  c #241353",
"2  c #2E1A50",
"3  c #27145B",
"4  c #2A165E",
"5  c #2C185D",
"6  c #331C5E",
"7  c #302140",
"8  c #33214C",
"9  c #362351",
"0  c #2B1863",
"q  c #2F186A",
"w  c #2C1567",
"e  c #321A6E",
"r  c #381E6F",
"t  c #341C67",
"y  c #321A73",
"u  c #351B7B",
"i  c #391E7D",
"p  c #3C2364",
"a  c #3F2375",
"s  c #452E65",
"d  c #4E2F6E",
"f  c #482C65",
"g  c #4C306E",
"h  c #462C75",
"j  c #553675",
"k  c #603A7F",
"l  c #674077",
"z  c #371C81",
"x  c #3A1E84",
"c  c #3C1E8C",
"v  c #3D1E92",
"b  c #3E2182",
"n  c #3F208E",
"m  c #3F2092",
"M  c #401F95",
"N  c #422385",
"B  c #462886",
"V  c #44248B",
"C  c #4A268D",
"Z  c #47288A",
"A  c #4C2B8C",
"S  c #4A2A86",
"D  c #512C8F",
"F  c #55348D",
"G  c #5A368F",
"H  c #442395",
"J  c #482794",
"K  c #4D2A93",
"L  c #44239B",
"P  c #49269D",
"I  c #4D299A",
"U  c #512D94",
"Y  c #512C9A",
"T  c #533297",
"R  c #5B3594",
"E  c #55329B",
"W  c #5B349C",
"Q  c #5D3A9A",
"!  c #623798",
"~  c #643A9F",
"^  c #4523A2",
"/  c #4926A3",
"(  c #4E29A3",
")  c #4F28A9",
"_  c #532DA3",
"`  c #532CAB",
"'  c #5630A2",
"]  c #5B35A2",
"[  c #5E38A2",
"{  c #5C34AC",
"}  c #5631AB",
"|  c #5B32B0",
" . c #643CA4",
".. c #623AAB",
"X. c #6A3CAB",
"o. c #6A3FA5",
"O. c #6239B3",
"+. c #693CB4",
"@. c #693AB8",
"#. c #6034B1",
"$. c #6740AD",
"%. c #6B42AC",
"&. c #7243AC",
"*. c #7946AB",
"=. c #7048AC",
"-. c #7A48AF",
";. c #7342A5",
":. c #7B50AE",
">. c #6C43B0",
",. c #7446B5",
"<. c #7A46B2",
"1. c #754BB1",
"2. c #7B4AB5",
"3. c #7544BA",
"4. c #7A46BA",
"5. c #7C49BA",
"6. c #7348B9",
"7. c #7F53BA",
"8. c #834CB4",
"9. c #864FBA",
"0. c #894EBE",
"q. c #8453BB",
"w. c #8A52BC",
"e. c #9058BC",
"r. c #9365B7",
"t. c #844CC4",
"y. c #894EC6",
"u. c #8A4FC9",
"i. c #8C53C3",
"p. c #8E52CC",
"a. c #8454C0",
"s. c #9256C2",
"d. c #935BC6",
"f. c #9152CE",
"g. c #925BCB",
"h. c #9B5BCE",
"j. c #9D5FD4",
"k. c #9355D2",
"l. c #A15FD2",
"z. c #8F60C4",
"x. c #996AC2",
"c. c #9C62CD",
"v. c #9F6ACC",
"b. c #9C61D1",
"n. c #A163CE",
"m. c #A26CCE",
"M. c #A86CCF",
"N. c #A674C9",
"B. c #B17CCE",
"V. c #A564D3",
"C. c #A964D3",
"Z. c #A768D2",
"A. c #AB6BD7",
"S. c #A562D8",
"D. c #AD69DB",
"F. c #AB67DA",
"G. c #B26DDB",
"H. c #A771D1",
"J. c #AA74D4",
"K. c #AF75D8",
"L. c #AF7DD2",
"P. c #B47FD0",
"I. c #B474DC",
"U. c #B57BD9",
"Y. c #BC78DE",
"T. c #BE78E2",
"R. c #BE73E4",
"E. c #C075E5",
"W. c #CC7CED",
"Q. c #C47CE5",
"!. c #B781D2",
"~. c #BC80D6",
"^. c #C086D8",
"/. c #C780E6",
"(. c #CC84EA",
"). c #C68AE1",
"_. c #D287EF",
"`. c #D28CED",
"'. c #CF93E2",
"]. c #D494EA",
"[. c #D891EF",
"{. c #DB9CEB",
"}. c #D586F1",
"|. c #D58DF0",
" X c #DA8EF3",
".X c #E397F6",
"XX c #E89DF8",
"oX c #E79AFA",
"OX c #E4A5F2",
/* pixels */
"                    . * y T G u u e 0 4 .                       ",
"                . , w ;.h.D.5.Y O.^ m n 1 1 o                   ",
"            O s t 4.k.a.t.l.l.h.q.J | L V 5.r 1 o               ",
"          . 2 c.k.0.9.C v _ *.9.8.*.$...I <.Y 4.h +             ",
"        X 5 *.f.f.C x T ..1.Q u U 8.;.../ u x <.` 1 X           ",
"      @ g t.p.` | ] ..v.K.U.N.%.x X.V.N ^ c u u X.Y 1 o         ",
"      7 n.p.) #.b.I.J.`./.v.m.q.L u.C.V { ^ x ~ S.@.c %         ",
"    . f C.V ..J.W..X}.R.V.a.#.v Q C.9.V >./ V G.g.} x p =       ",
"    ; *.l.T H.].Q.E.D.M.z.{ I ] &.q.b b n m n s.| ^ x w.k       ",
"  X j G.,.' P.d.V.a.D r.=.T -.I.h.n z H J L b A L c C i.k O     ",
"  & X.h.R R Q ' N.[ V G G N.OX`.p.c z n 6.P b 2.A u d.t.J <     ",
"  * J X.I.{.!.R G G q.).'.{.[.f.J u a V / b B 1.A S C.u.+.f     ",
"  9 %.V ~ C.! n.~.'.Y.E.-.e.w.N N x J 6.P N &.A A B.(.b.Q ,     ",
"  > ..%.V I i A R Z.%.J L ( H E q.>.P ( V i N B !.`.y.I b :     ",
"  % V ( L x i y u ` / m V c v / ( V z U d.N x =.]._.h.T c 3     ",
"  % i v ^ ( >.b u m n x v L M x n c u b D x H U I.t.Y b m 4     ",
"  8 $.H c / ` L H n b u x <.&.u u b u u z M n P C. .u c ^ 0     ",
"  ;  .X.x c x J i.A $.A u T A u u u Z %.P _ H.A.X.N v ^ m :     ",
"  . d U.x.P P X.%.N A N u u u K =.$.P 6.K.F.`.D.U v ^ @.h +     ",
"    - e.`.v.I { H m z Q &.E m ( +.| | U. XW.<.W N M M U 2       ",
"    X 6 g._.w.K z.{ L ] +.P =.J.7.c  .W.p.c.A Q J ^ c 1 +       ",
"      $ J 8.u.s.(.S.f.f.c.x.~.XXQ.w.y.3.V W L O.` O.K %         ",
"      o , u H 9.F.s.p.F.`.XXT.p.j.A.,.I &.H ^ v ^ { p +         ",
"        X 1 c c  .N v [ h.V.X.c I Q c Y p.@.H v m 4 +           ",
"          o e { J T a x ] U u z c m ^ m H $.H H 4 +             ",
"            @ j a $.I ' P z D ' ( ` L c n u y 1 o               ",
"              . . , y  .] x %.<.I $.x H y 1 X                   ",
"                    . > 4 4 e y e y 5 , . .                     ",
"                      .   . . . . . .                           ",
"                                                                "
};
